<?xml version="1.0" standalone="no"?>
<!DOCTYPE svg PUBLIC "-//W3C//DTD SVG 20010904//EN"
 "http://www.w3.org/TR/2001/REC-SVG-20010904/DTD/svg10.dtd">
<svg version="1.0" xmlns="http://www.w3.org/2000/svg"
 width="512.000000pt" height="512.000000pt" viewBox="0 0 512.000000 512.000000"
 preserveAspectRatio="xMidYMid meet">

<g transform="translate(0.000000,512.000000) scale(0.100000,-0.100000)"
fill="#000000" stroke="none">
<path d="M2360 5049 c-994 -82 -1854 -763 -2163 -1714 -263 -809 -104 -1676
431 -2345 371 -464 911 -782 1510 -889 397 -71 816 -41 1207 86 877 285 1520
1027 1684 1941 49 273 49 591 0 864 -92 513 -328 968 -694 1333 -521 521
-1238 784 -1975 724z m448 -210 c263 -28 530 -106 770 -224 464 -228 819 -583
1047 -1047 315 -639 315 -1377 0 -2016 -228 -464 -583 -819 -1047 -1047 -639
-315 -1377 -315 -2016 0 -464 228 -819 583 -1047 1047 -315 639 -315 1377 0
2016 151 307 359 567 620 777 331 266 762 446 1180 493 114 13 379 14 493 1z"/>
<path d="M3799 4102 c-95 -62 -103 -43 115 -261 l193 -192 40 53 c51 65 59 94
39 141 -18 45 -184 219 -245 259 -56 35 -86 35 -142 0z"/>
<path d="M3602 3927 l-32 -33 193 -192 c106 -106 197 -192 203 -192 6 0 23 14
39 30 l29 31 -194 194 c-107 107 -197 195 -200 195 -4 0 -20 -15 -38 -33z"/>
<path d="M3163 3488 c-177 -178 -326 -335 -332 -350 -21 -57 -131 -445 -131
-464 0 -25 18 -44 43 -44 31 0 459 130 487 147 14 9 168 156 343 327 l317 310
-197 198 c-109 109 -200 198 -203 198 -3 0 -150 -145 -327 -322z m-147 -423
c97 -10 100 -13 106 -90 3 -36 13 -76 23 -91 9 -14 15 -27 13 -29 -2 -2 -55
-19 -117 -38 -127 -38 -159 -37 -180 9 -9 21 -6 44 20 132 35 122 37 125 53
119 7 -3 44 -8 82 -12z"/>
<path d="M1615 3681 c-223 -6 -232 -7 -288 -33 -71 -33 -141 -104 -187 -189
l-35 -64 0 -770 0 -770 28 -57 c41 -84 116 -161 193 -199 56 -28 78 -33 172
-38 l107 -6 3 -302 c1 -167 5 -303 8 -303 11 0 145 92 479 329 277 196 352
245 404 261 59 19 91 20 505 20 488 0 578 6 659 45 66 31 140 107 168 172 34
80 39 183 39 833 l0 625 -117 -118 -118 -117 -5 -548 c-5 -499 -7 -550 -23
-579 -38 -71 -11 -67 -622 -73 -535 -5 -551 -6 -595 -26 -25 -12 -150 -96
-279 -188 -129 -91 -240 -166 -248 -166 -10 0 -13 41 -15 188 l-3 187 -200 5
c-226 6 -249 12 -281 77 -18 36 -19 72 -19 743 0 685 1 706 20 745 11 22 36
48 55 60 34 19 54 20 792 25 l758 5 110 110 c60 60 110 113 110 117 0 9 -1207
7 -1575 -1z"/>
<path d="M3037 2506 c-150 -41 -196 -240 -81 -348 38 -35 74 -48 138 -48 107
0 183 73 185 178 l1 32 -101 0 c-98 0 -100 0 -97 -22 3 -21 9 -23 71 -26 37
-2 67 -5 67 -8 0 -2 -6 -20 -14 -38 -20 -48 -51 -66 -112 -66 -58 0 -102 27
-129 81 -38 72 -3 174 72 210 48 23 87 20 139 -12 47 -29 83 -9 48 26 -44 43
-117 59 -187 41z"/>
<path d="M1754 2497 c-2 -7 -3 -96 -2 -197 l3 -185 119 2 c136 3 159 12 177
71 9 32 8 44 -5 70 -9 17 -26 36 -37 43 -21 11 -21 11 5 38 55 58 39 141 -32
160 -55 16 -221 14 -228 -2z m216 -57 c57 -57 -20 -119 -125 -100 -27 5 -30 9
-33 49 -5 67 -1 71 73 71 52 0 69 -4 85 -20z m3 -162 c9 -7 19 -25 22 -40 5
-21 1 -33 -19 -53 -24 -24 -32 -26 -94 -23 l-67 3 -3 63 -3 62 74 0 c43 0 80
-5 90 -12z"/>
<path d="M2152 2502 c-9 -7 -12 -53 -10 -198 l3 -189 113 -3 c113 -3 113 -3
110 20 -3 21 -9 23 -83 28 l-80 5 -3 165 c-2 116 -6 166 -15 172 -15 10 -19
10 -35 0z"/>
<path d="M2522 2489 c-26 -13 -55 -39 -70 -62 -23 -35 -27 -51 -27 -117 0 -96
24 -138 103 -177 96 -47 212 -18 264 65 19 30 23 51 23 113 0 66 -4 81 -28
117 -15 23 -45 51 -67 62 -54 27 -141 27 -198 -1z m168 -42 c44 -22 70 -73 70
-137 0 -74 -28 -117 -92 -144 -45 -18 -48 -19 -92 -2 -61 23 -89 64 -94 136
-5 68 14 112 61 140 37 23 109 26 147 7z"/>
</g>
</svg>
